PathFileType  4	(X/Y/Z) C:\Users\antoi\Documents\MyRepositories\mobilecap\ResultsAnalysis
DataRate	CameraRate	NumFrames	NumMarkers	Units	OrigDataRate	OrigDataStartFrame	OrigNumFrames
100.0	100.0	4	51	mm	100.0	1	1424
Frame#	Time	r_knee			r_shank_antsup			r_ankle			r_calc			r_5meta			r_toe			L_knee			L_shank_antsup			L_ankle			L_calc			L_5meta			L_toe			r_sh2			r_sh3			r_sh4			L_sh2			L_sh3			r_thigh1			r_thigh2			r_thigh3			r_thigh4			r_thigh5			L_thigh1			L_thigh2			L_thigh3			L_thigh4			r.ASIS			r.PSIS			L.ASIS			L.PSIS			C7			R_Shoulder			L_Shoulder			R_Sternum			L_Sternum			R_humerus			R_elbow_med			R_elbow_lat			R_forearm			R_wrist_radius			R_wrist_ulna			L_humerus			L_elbow_med			L_elbow_lat			L_forearm			L_wrist_radius			L_wrist_ulna			R_HJC			L_HJC			R_HJC_reg			L_HJC_reg			
		X1	Y1	Z1	X2	Y2	Z2	X3	Y3	Z3	X4	Y4	Z4	X5	Y5	Z5	X6	Y6	Z6	X7	Y7	Z7	X8	Y8	Z8	X9	Y9	Z9	X10	Y10	Z10	X11	Y11	Z11	X12	Y12	Z12	X13	Y13	Z13	X14	Y14	Z14	X15	Y15	Z15	X16	Y16	Z16	X17	Y17	Z17	X18	Y18	Z18	X19	Y19	Z19	X20	Y20	Z20	X21	Y21	Z21	X22	Y22	Z22	X23	Y23	Z23	X24	Y24	Z24	X25	Y25	Z25	X26	Y26	Z26	X27	Y27	Z27	X28	Y28	Z28	X29	Y29	Z29	X30	Y30	Z30	X31	Y31	Z31	X32	Y32	Z32	X33	Y33	Z33	X34	Y34	Z34	X35	Y35	Z35	X36	Y36	Z36	X37	Y37	Z37	X38	Y38	Z38	X39	Y39	Z39	X40	Y40	Z40	X41	Y41	Z41	X42	Y42	Z42	X43	Y43	Z43	X44	Y44	Z44	X45	Y45	Z45	X46	Y46	Z46	X47	Y47	Z47	X48	Y48	Z48	X49	Y49	Z49	X50	Y50	Z50	X51	Y51	Z51	

1	0.00000000	-214.09673	467.72728	-431.25959	-160.15577	398.70312	-432.86024	-327.47710	100.45800	-429.22472	-396.76072	63.91672	-469.75187	-232.90536	45.73307	-381.60430	-180.94685	69.76990	-433.76500	-208.97134	461.23965	-910.50484	-165.45468	376.79997	-920.51882	-319.59875	100.83593	-904.48334	-390.98453	64.37011	-863.16058	-217.84354	42.52336	-951.36286	-175.75066	63.15027	-895.93690	-218.63236	300.23988	-410.24413	-231.68882	434.44944	-415.85841	-284.44320	335.77471	-409.51695	-248.56979	410.76718	-920.18453	-286.07345	293.76585	-929.40206	-516.68229	554.46178	-492.08022	-408.01237	543.38200	-472.82361	-396.79340	487.05277	-434.57114	-534.23878	446.42726	-464.67627	-418.07411	435.23989	-444.63204	-475.35773	514.44401	-910.73629	-338.74018	515.47052	-912.84998	-477.45475	400.76484	-880.28308	-337.02218	407.89035	-894.42219	-518.43119	574.00819	-562.64260	-706.21060	586.86675	-639.37750	-515.10667	567.46740	-807.99412	-714.66494	588.84310	-734.41587	-688.22292	994.47532	-699.98945	-590.48047	966.64747	-518.74109	-607.19315	968.44135	-876.50150	-545.69193	972.15163	-676.47619	-542.23796	970.91295	-716.90796	-593.50271	831.23985	-452.08132	-650.23804	620.09125	-498.75266	-638.26308	638.07983	-421.18516	-513.44152	687.48978	-453.64676	-400.00403	729.79814	-500.72018	-382.01682	703.41740	-489.96632	-599.83625	850.12304	-934.12986	-653.33762	628.00836	-859.42248	-643.08261	645.04547	-940.91336	-544.69857	687.36178	-921.67176	-403.95402	727.07827	-887.06818	-394.11567	695.78259	-896.58967	-581.09506	484.61969	-583.02644	-582.16553	483.95390	-789.49347	-570.42863	487.96634	-593.59630	-584.78032	491.32131	-754.92887	
2	0.01000000	-214.26931	467.69800	-431.14493	-160.29178	398.54595	-432.87113	-327.58857	100.38836	-429.27160	-396.78059	63.77340	-469.60715	-232.91960	45.57594	-381.96633	-181.03767	69.94058	-433.76816	-209.10554	461.13485	-910.33098	-165.47419	376.78434	-920.50498	-319.61357	100.83249	-904.48168	-391.00211	64.34521	-863.17415	-217.82423	42.53596	-951.30832	-175.74866	63.15453	-895.93015	-218.89587	300.08910	-410.31083	-231.71219	434.40679	-415.86641	-284.60183	335.45201	-409.63241	-248.60272	410.71826	-920.17125	-286.14696	293.72253	-929.40614	-516.72108	554.47698	-492.07508	-408.17568	543.36819	-472.66146	-396.85897	487.11577	-434.58393	-534.37950	446.49408	-464.74546	-418.21994	435.23318	-444.74999	-475.35479	514.37828	-910.73287	-338.81550	515.37445	-912.87214	-477.55145	400.69759	-880.21138	-337.07876	407.81137	-894.36101	-518.46653	573.94578	-562.71411	-706.36422	586.90631	-639.47822	-515.21079	567.46280	-808.04078	-714.76280	588.87553	-734.34613	-687.87037	994.60779	-699.88612	-590.31031	966.66707	-518.60321	-606.94389	968.47767	-876.43354	-545.23540	972.00507	-676.42268	-541.72229	970.79622	-716.83229	-593.44493	831.28719	-451.83113	-650.05557	620.07034	-498.74268	-638.16483	638.09090	-421.13749	-513.24755	687.55916	-453.56698	-399.81372	729.77060	-500.64813	-381.88392	703.42163	-489.98166	-599.78188	850.13435	-933.97327	-653.27823	627.99974	-859.46247	-643.06233	645.13494	-940.93747	-544.60215	687.45446	-921.75968	-403.83036	727.10747	-887.10322	-394.11465	695.85315	-896.66978	-581.20394	484.58928	-583.08829	-582.31491	483.96467	-789.55604	-570.59593	487.97794	-593.67887	-584.87731	491.32657	-754.99855	
3	0.02000000	-214.46599	467.61126	-431.09378	-160.47574	398.49595	-432.87275	-327.71436	100.34565	-429.32401	-396.86842	63.59117	-469.55086	-232.99021	45.52598	-382.18306	-181.09490	70.11911	-433.79176	-209.25960	461.04546	-910.17381	-165.53866	376.76608	-920.49403	-319.62380	100.82665	-904.45823	-391.01935	64.32421	-863.18509	-217.81285	42.54964	-951.26926	-175.75338	63.16443	-895.91767	-219.15108	299.96832	-410.32570	-231.79042	434.36391	-415.84511	-284.87822	335.65572	-409.73146	-248.67540	410.72153	-920.21182	-286.18143	293.67835	-929.41092	-516.73415	554.49666	-492.00672	-408.28638	543.27397	-472.52763	-396.95631	487.05020	-434.59484	-534.58253	446.55225	-464.77191	-418.36072	435.21905	-444.73340	-475.79060	514.16828	-911.29813	-338.89940	515.29577	-912.89751	-477.63205	400.65478	-880.19369	-337.18067	407.71900	-894.20594	-518.80416	574.83313	-562.93860	-706.48983	586.94099	-639.58605	-515.31321	567.45674	-808.09249	-714.75225	589.03197	-734.50734	-687.47084	994.66287	-699.71260	-589.97783	966.69555	-518.43321	-606.59977	968.48728	-876.22785	-544.75878	971.90167	-676.28203	-541.14207	970.71230	-716.75619	-593.28899	831.32022	-451.62865	-649.79636	620.01337	-498.70335	-637.86646	638.16624	-420.99690	-513.01268	687.59801	-453.50401	-399.62067	729.73561	-500.60083	-381.60589	703.29830	-490.01545	-599.63152	850.24673	-933.85472	-653.26832	628.21373	-859.44234	-643.01361	645.25718	-940.93170	-544.48885	687.61046	-921.75508	-403.75009	727.14520	-887.09695	-394.04669	695.85593	-896.63347	-581.22088	485.21963	-582.93411	-582.26148	483.97926	-789.39721	-570.48628	488.02674	-594.09407	-584.52218	491.57835	-755.33797	
4	0.03000000	-214.66381	467.50966	-431.09346	-160.66261	398.56592	-432.84642	-327.87362	100.31791	-429.36028	-396.94364	63.50067	-469.52430	-233.08157	45.54277	-382.27312	-181.12660	70.26135	-433.81719	-209.40680	460.97218	-910.06652	-165.65344	376.75761	-920.47749	-319.63710	100.78455	-904.34435	-391.03880	64.30721	-863.19763	-217.81261	42.55895	-951.24844	-175.75579	63.17808	-895.90951	-219.36061	299.93467	-410.26962	-231.90347	434.32722	-415.82088	-285.04230	335.78804	-409.75478	-248.78593	410.78373	-920.32324	-286.27167	293.63291	-929.33331	-516.80522	554.48695	-491.89548	-408.47124	543.18160	-472.38595	-397.09437	486.92004	-434.57910	-534.75502	446.54839	-464.74148	-418.48971	435.20820	-444.62154	-476.47746	513.90140	-912.15605	-338.99641	515.23575	-912.93251	-477.71164	400.63506	-880.21965	-337.33894	407.64783	-894.03192	-519.34785	576.32160	-563.21416	-706.57548	586.97580	-639.64889	-515.39944	567.45408	-808.14388	-714.68276	589.19426	-734.70980	-687.01920	994.62909	-699.41896	-589.44357	966.74240	-518.25848	-606.13172	968.53093	-875.88714	-544.21920	971.82473	-676.04475	-540.54350	970.64529	-716.66027	-593.03612	831.37933	-451.52220	-649.52956	619.97050	-498.63751	-637.46256	638.22716	-420.78418	-512.69844	687.62678	-453.43532	-399.37161	729.71802	-500.52911	-381.26939	703.19687	-489.95480	-599.33493	850.47052	-933.76291	-653.21713	628.55879	-859.39573	-642.89706	645.48016	-940.90172	-544.35547	687.78033	-921.69653	-403.75561	727.20475	-887.04497	-393.90443	695.81695	-896.54009	-581.14541	486.26540	-582.59002	-582.07016	483.97946	-789.04453	-570.19203	488.18273	-594.59216	-583.93617	491.94361	-755.74594	
